<svg version="1.0" xmlns="http://www.w3.org/2000/svg"
 width="300.000000pt" height="300.000000pt" viewBox="0 0 300.000000 300.000000"
 preserveAspectRatio="xMidYMid meet">
<metadata>
Created by potrace 1.10, written by Peter Selinger 2001-2011
</metadata>
<g transform="translate(0.000000,300.000000) scale(0.100000,-0.100000)"
fill="#000000" stroke="none">
<path d="M2418 2513 c7 -3 16 -2 19 1 4 3 -2 6 -13 5 -11 0 -14 -3 -6 -6z"/>
<path d="M2025 2469 c-11 -17 1 -21 15 -4 8 9 8 15 2 15 -6 0 -14 -5 -17 -11z"/>
<path d="M586 2375 c-3 -8 -1 -15 4 -15 6 0 10 7 10 15 0 8 -2 15 -4 15 -2 0
-6 -7 -10 -15z"/>
<path d="M788 2343 c-10 -2 -18 -9 -18 -14 0 -6 8 -5 20 1 11 6 20 13 20 15 0
3 -1 4 -2 4 -2 -1 -11 -3 -20 -6z"/>
<path d="M540 2331 c0 -5 9 -7 20 -4 11 3 20 7 20 9 0 2 -9 4 -20 4 -11 0 -20
-4 -20 -9z"/>
<path d="M1980 2279 c0 -5 5 -7 10 -4 6 3 10 8 10 11 0 2 -4 4 -10 4 -5 0 -10
-5 -10 -11z"/>
<path d="M1150 2270 c0 -5 5 -10 10 -10 6 0 10 5 10 10 0 6 -4 10 -10 10 -5 0
-10 -4 -10 -10z"/>
<path d="M1769 2233 c-13 -16 -12 -17 4 -4 9 7 17 15 17 17 0 8 -8 3 -21 -13z"/>
<path d="M1431 2131 c-28 -43 -51 -81 -51 -84 0 -3 -22 -42 -50 -87 -27 -45
-50 -83 -50 -86 0 -2 -12 -23 -27 -47 -35 -53 -69 -113 -88 -152 -9 -16 -46
-80 -83 -140 -37 -61 -78 -131 -92 -157 -13 -26 -28 -44 -32 -42 -4 3 -5 -2
-2 -10 3 -9 2 -16 -2 -16 -5 0 -15 -15 -23 -32 -8 -18 -24 -46 -36 -63 -11
-16 -27 -45 -34 -62 -8 -18 -17 -33 -22 -33 -5 0 -9 -5 -9 -10 0 -9 -47 -87
-60 -100 -3 -3 -6 -12 -8 -20 -2 -8 -9 -22 -16 -30 -26 -30 -27 -51 -4 -70 20
-16 40 -18 161 -17 77 1 141 -1 144 -5 2 -5 9 -8 14 -8 6 0 8 3 5 8 -2 4 14 6
37 4 50 -3 27 -3 265 1 105 1 192 -1 192 -4 0 -4 13 -5 30 -3 16 3 166 6 332
7 257 2 306 4 325 18 l22 15 -54 99 c-30 55 -55 101 -55 104 0 2 -11 19 -25
37 -14 18 -25 40 -25 48 0 9 -3 16 -8 16 -4 0 -12 8 -17 19 -49 91 -69 127
-81 139 -8 7 -14 18 -14 24 0 5 -9 23 -21 40 -12 16 -19 31 -16 34 3 3 -6 17
-19 31 -13 14 -22 29 -19 33 3 4 -2 13 -10 20 -8 7 -15 19 -15 26 0 8 -3 14
-8 14 -7 0 -25 30 -38 63 -3 9 -10 17 -15 17 -5 0 -9 7 -9 15 0 9 -9 25 -20
37 -15 17 -17 25 -8 41 8 16 7 19 -3 15 -15 -6 -32 9 -37 31 -2 8 -16 33 -32
56 -16 23 -27 45 -24 47 2 3 -2 11 -11 18 -8 7 -15 18 -15 25 0 7 -7 18 -16
26 -8 7 -13 21 -10 32 2 10 2 16 -1 13 -13 -13 -68 78 -57 95 3 5 -1 9 -9 9
-8 0 -20 14 -27 30 -7 17 -17 30 -22 30 -5 0 -6 5 -3 10 3 6 -4 10 -18 10 -19
0 -35 -16 -76 -79z m269 -271 c102 -179 266 -463 363 -632 97 -169 177 -312
177 -318 0 -7 -233 -10 -745 -10 -431 0 -745 4 -745 9 0 5 82 150 183 322 101
173 268 459 371 637 104 178 193 321 199 319 5 -1 94 -149 197 -327z"/>
<path d="M1350 1889 c-85 -145 -162 -279 -173 -296 l-19 -33 342 0 342 0 -14
23 c-29 44 -315 542 -320 556 -2 8 -73 -104 -158 -250z m171 171 c5 0 9 -9 9
-20 0 -11 6 -20 14 -20 9 0 12 -10 10 -32 -2 -21 -1 -28 5 -20 6 10 21 -9 52
-65 24 -43 43 -83 43 -90 -1 -6 6 -9 15 -6 13 5 14 3 4 -8 -15 -15 -17 -33 -4
-25 11 7 44 -42 36 -54 -3 -6 1 -10 10 -10 8 0 18 -8 22 -17 3 -10 15 -30 25
-45 23 -33 23 -34 -4 -42 -22 -7 -22 -7 -3 -16 16 -7 12 -9 -20 -9 -22 -1 -51
-4 -64 -8 -16 -4 -22 -3 -17 5 4 7 -3 8 -25 2 -25 -7 -30 -6 -25 5 3 8 1 15
-4 15 -6 0 -10 -4 -10 -9 0 -5 -26 -8 -57 -7 -32 1 -64 -2 -70 -7 -9 -6 -13
-6 -13 1 0 10 -95 8 -132 -4 -10 -3 -18 -1 -18 4 0 5 -22 7 -50 4 -56 -5 -67
10 -30 43 10 9 18 20 17 24 -4 13 67 121 80 121 7 0 10 6 7 14 -3 7 20 55 50
105 30 50 58 101 61 112 4 11 21 37 38 56 25 28 33 33 35 20 2 -9 8 -17 13
-17z"/>
<path d="M1480 1969 c0 -5 5 -7 10 -4 6 3 10 8 10 11 0 2 -4 4 -10 4 -5 0 -10
-5 -10 -11z"/>
<path d="M1450 1935 c-11 -13 -10 -14 4 -9 9 3 16 10 16 15 0 13 -6 11 -20 -6z"/>
<path d="M1600 1869 c0 -5 5 -7 10 -4 6 3 10 8 10 11 0 2 -4 4 -10 4 -5 0 -10
-5 -10 -11z"/>
<path d="M1425 1840 c-26 -28 -15 -31 14 -3 13 13 20 23 14 23 -5 0 -18 -9
-28 -20z"/>
<path d="M1495 1830 c3 -5 8 -10 11 -10 2 0 4 5 4 10 0 6 -5 10 -11 10 -5 0
-7 -4 -4 -10z"/>
<path d="M1363 1823 c-7 -2 -13 -12 -13 -21 1 -16 2 -16 14 0 7 10 17 14 21
10 5 -4 5 -1 1 6 -4 6 -8 12 -9 11 -1 0 -8 -3 -14 -6z"/>
<path d="M1475 1810 c-3 -5 -1 -10 4 -10 6 0 11 5 11 10 0 6 -2 10 -4 10 -3 0
-8 -4 -11 -10z"/>
<path d="M1362 1765 c-7 -8 -8 -15 -3 -15 5 0 13 5 16 10 4 6 11 7 17 4 7 -4
8 -2 4 4 -9 16 -18 15 -34 -3z"/>
<path d="M1435 1760 c-10 -11 -15 -20 -12 -20 4 0 16 9 27 20 11 11 16 20 12
20 -5 0 -17 -9 -27 -20z"/>
<path d="M1504 1752 c4 -7 1 -12 -9 -12 -9 0 -13 -4 -10 -10 3 -5 10 -10 15
-10 13 0 20 29 8 36 -7 4 -8 3 -4 -4z"/>
<path d="M1310 1725 c0 -9 6 -12 15 -9 8 4 15 7 15 9 0 2 -7 5 -15 9 -9 3 -15
0 -15 -9z"/>
<path d="M1320 1673 l-25 -26 33 19 c17 10 32 22 32 26 0 14 -15 7 -40 -19z"/>
<path d="M1440 1691 c0 -7 -5 -9 -12 -5 -7 5 -8 3 -3 -5 5 -9 10 -10 18 -2 6
6 8 14 4 18 -4 3 -7 1 -7 -6z"/>
<path d="M1715 1681 c-3 -5 -1 -12 5 -16 5 -3 10 1 10 9 0 18 -6 21 -15 7z"/>
<path d="M1560 1669 c0 -5 5 -7 10 -4 6 3 10 8 10 11 0 2 -4 4 -10 4 -5 0 -10
-5 -10 -11z"/>
<path d="M1365 1650 c-3 -5 -1 -10 4 -10 6 0 11 5 11 10 0 6 -2 10 -4 10 -3 0
-8 -4 -11 -10z"/>
<path d="M1407 1647 c-3 -8 3 -14 16 -15 12 0 17 2 12 6 -6 4 -13 11 -16 15
-4 4 -9 2 -12 -6z"/>
<path d="M1500 1651 c0 -10 19 -25 25 -20 1 2 -3 10 -11 17 -8 7 -14 8 -14 3z"/>
<path d="M1550 1643 c11 -24 34 -30 45 -13 3 6 -1 7 -10 4 -9 -4 -22 1 -31 12
-14 18 -14 18 -4 -3z"/>
<path d="M1276 1633 c-6 -14 -5 -15 5 -6 7 7 10 15 7 18 -3 3 -9 -2 -12 -12z"/>
<path d="M1720 1625 c-11 -13 -10 -14 4 -9 9 3 16 10 16 15 0 13 -6 11 -20 -6z"/>
<path d="M1160 1533 c0 -1 64 -113 141 -250 78 -136 153 -269 168 -296 l27
-48 147 258 c81 142 158 276 171 298 l24 40 -339 0 c-186 0 -339 -1 -339 -2z
m302 -39 c6 -4 8 -3 5 3 -5 7 12 11 48 11 33 -1 55 -5 55 -12 0 -7 3 -7 8 -1
4 6 53 11 110 12 l102 2 -46 -87 c-26 -48 -53 -94 -61 -103 -7 -8 -13 -19 -13
-23 0 -4 -11 -22 -23 -39 -13 -18 -30 -48 -37 -67 -7 -19 -22 -44 -32 -56 -10
-11 -18 -24 -18 -28 0 -4 -15 -32 -32 -62 l-33 -54 -22 27 c-13 14 -23 32 -23
40 0 21 -3 27 -23 48 -10 11 -28 40 -39 65 -11 25 -23 47 -27 50 -3 3 -16 26
-29 52 -13 26 -27 50 -33 53 -5 4 -9 14 -9 24 0 10 -11 30 -25 45 -24 26 -29
38 -26 64 1 6 -5 12 -14 12 -24 0 -18 28 8 33 35 6 216 -1 229 -9z"/>
<path d="M1535 1470 c-19 -8 -19 -9 3 -9 12 -1 22 4 22 9 0 6 -1 10 -2 9 -2 0
-12 -4 -23 -9z"/>
<path d="M1560 1425 c-24 -13 -24 -14 -3 -12 12 1 25 7 27 14 6 16 7 16 -24
-2z"/>
<path d="M1634 1422 c4 -6 -2 -17 -14 -24 -11 -7 -20 -16 -20 -20 0 -15 15 -7
33 17 12 17 14 26 5 31 -7 4 -8 3 -4 -4z"/>
<path d="M1665 1390 c3 -5 8 -10 11 -10 2 0 4 5 4 10 0 6 -5 10 -11 10 -5 0
-7 -4 -4 -10z"/>
<path d="M1375 1369 c-11 -17 1 -21 15 -4 8 9 8 15 2 15 -6 0 -14 -5 -17 -11z"/>
<path d="M1570 1359 c0 -5 5 -7 10 -4 6 3 10 8 10 11 0 2 -4 4 -10 4 -5 0 -10
-5 -10 -11z"/>
<path d="M1370 1320 c-24 -15 -7 -18 20 -3 14 7 18 13 10 13 -8 0 -22 -4 -30
-10z"/>
<path d="M1505 1320 c-3 -5 -12 -7 -20 -3 -8 3 -15 0 -15 -6 0 -16 25 -13 40
4 7 8 10 15 7 15 -3 0 -8 -4 -12 -10z"/>
<path d="M1536 1303 c-6 -14 -5 -15 5 -6 7 7 10 15 7 18 -3 3 -9 -2 -12 -12z"/>
<path d="M1628 1303 c7 -3 16 -2 19 1 4 3 -2 6 -13 5 -11 0 -14 -3 -6 -6z"/>
<path d="M1376 1271 c-4 -7 -5 -15 -2 -18 9 -9 19 4 14 18 -4 11 -6 11 -12 0z"/>
<path d="M1525 1230 c-3 -6 1 -7 9 -4 18 7 21 14 7 14 -6 0 -13 -4 -16 -10z"/>
<path d="M1436 1178 c-8 -12 -12 -26 -8 -32 4 -7 8 -3 10 9 2 11 9 26 14 33 6
6 8 12 5 12 -3 0 -13 -10 -21 -22z"/>
<path d="M1480 1110 c-9 -6 -10 -10 -3 -10 6 0 15 5 18 10 8 12 4 12 -15 0z"/>
<path d="M962 1225 c-95 -162 -172 -297 -172 -299 0 -2 153 -3 340 -3 187 1
340 2 340 4 0 1 -63 114 -141 250 -78 137 -153 269 -168 296 l-27 47 -172
-295z m179 233 c1 -7 1 -16 0 -20 0 -4 8 -12 19 -18 11 -6 18 -15 15 -19 -2
-5 5 -19 16 -32 18 -21 19 -24 5 -27 -16 -3 -24 -23 -8 -21 26 4 51 -16 57
-47 3 -19 11 -34 18 -34 7 0 6 -4 -3 -10 -13 -8 -11 -11 8 -16 13 -4 22 -14
22 -25 0 -11 7 -22 15 -25 8 -4 15 -14 15 -24 0 -10 7 -26 16 -34 8 -9 12 -21
8 -28 -5 -8 -2 -9 10 -5 10 4 15 3 11 -3 -3 -6 3 -24 15 -40 12 -16 18 -35 14
-41 -4 -7 -3 -10 2 -7 5 3 15 0 22 -8 11 -12 10 -14 -6 -14 -10 0 -24 -6 -31
-12 -11 -11 -12 -10 -6 1 6 10 4 12 -5 6 -8 -5 -38 -9 -67 -9 -41 -1 -52 2
-48 13 4 10 -1 9 -20 -3 -18 -12 -30 -14 -44 -7 -10 6 -21 8 -24 5 -11 -11
-117 -12 -117 -1 0 7 -4 7 -12 -1 -16 -16 -31 -15 -22 1 6 9 5 9 -7 0 -12 -10
-20 -9 -39 4 -13 9 -20 12 -17 6 4 -6 -3 -13 -15 -16 -13 -4 -26 -1 -30 6 -4
7 -8 7 -8 2 0 -7 -15 -9 -35 -7 -40 5 -43 14 -16 41 10 10 25 35 32 55 7 20
17 36 21 36 4 0 7 3 6 8 -3 12 24 62 34 62 4 0 8 6 8 13 0 6 21 44 48 82 26
39 58 93 72 120 29 58 45 77 55 67 5 -4 5 3 2 16 -3 12 -1 22 4 22 5 0 10 -6
10 -12z"/>
<path d="M1140 1393 c0 -6 8 -17 18 -24 16 -13 16 -13 2 6 -8 11 -16 22 -17
24 -2 2 -3 0 -3 -6z"/>
<path d="M1065 1280 c3 -5 8 -10 11 -10 2 0 4 5 4 10 0 6 -5 10 -11 10 -5 0
-7 -4 -4 -10z"/>
<path d="M1160 1241 c0 -7 -4 -10 -8 -7 -11 6 -24 -4 -39 -31 -11 -18 -10 -21
1 -17 8 3 16 15 19 26 3 11 10 17 16 14 11 -7 26 12 17 21 -3 4 -6 1 -6 -6z"/>
<path d="M1070 1230 c0 -5 7 -7 15 -4 8 4 15 8 15 10 0 2 -7 4 -15 4 -8 0 -15
-4 -15 -10z"/>
<path d="M1037 1209 c7 -7 15 -10 18 -7 3 3 -2 9 -12 12 -14 6 -15 5 -6 -5z"/>
<path d="M1170 1189 c0 -5 5 -7 10 -4 6 3 10 8 10 11 0 2 -4 4 -10 4 -5 0 -10
-5 -10 -11z"/>
<path d="M1031 1166 c-7 -8 -8 -17 -3 -20 6 -3 12 3 15 14 6 24 4 25 -12 6z"/>
<path d="M1220 1120 c0 -5 7 -10 16 -10 8 0 12 5 9 10 -3 6 -10 10 -16 10 -5
0 -9 -4 -9 -10z"/>
<path d="M976 1085 c-11 -8 -17 -17 -14 -20 2 -3 13 4 23 15 21 23 18 25 -9 5z"/>
<path d="M1220 1040 c-8 -5 -12 -12 -9 -15 4 -3 12 1 19 10 14 17 11 19 -10 5z"/>
<path d="M1066 975 c4 -8 10 -12 15 -9 14 8 10 24 -6 24 -9 0 -12 -6 -9 -15z"/>
<path d="M1808 1428 c-64 -110 -282 -489 -286 -499 -1 -3 152 -7 341 -7 l344
0 -82 142 c-45 77 -123 212 -172 299 l-91 158 -54 -93z m88 -18 c14 0 27 -28
18 -41 -3 -5 0 -9 5 -9 6 0 11 -5 11 -12 0 -6 6 -19 14 -27 7 -9 27 -41 43
-71 16 -30 37 -67 46 -81 10 -14 15 -34 11 -43 -5 -12 -2 -15 10 -10 10 4 18
0 22 -12 3 -11 15 -36 25 -56 11 -21 17 -44 13 -50 -4 -7 -4 -10 1 -6 8 8 35
-9 35 -22 0 -14 -104 -32 -131 -22 -17 7 -42 7 -74 0 -41 -9 -50 -8 -61 6 -10
15 -12 15 -18 1 -3 -8 -17 -15 -31 -15 -15 0 -24 4 -20 10 3 6 1 10 -4 10 -6
0 -11 -4 -11 -10 0 -5 -15 -8 -32 -6 -18 3 -33 6 -33 7 0 1 -10 3 -22 4 -13 1
-23 0 -23 -4 0 -3 -18 -7 -40 -8 -22 0 -40 2 -40 7 0 4 -11 5 -25 2 -28 -5
-33 9 -10 28 8 7 15 17 15 23 0 19 55 97 69 97 8 0 11 6 7 17 -4 9 -3 19 1 22
8 6 46 81 47 93 1 3 12 21 26 40 13 18 25 39 26 46 3 18 64 114 83 130 14 11
17 10 25 -12 6 -14 15 -26 22 -26z"/>
<path d="M1880 1390 c0 -5 5 -10 10 -10 6 0 10 5 10 10 0 6 -4 10 -10 10 -5 0
-10 -4 -10 -10z"/>
<path d="M1790 1320 c0 -5 7 -7 15 -4 8 4 15 8 15 10 0 2 -7 4 -15 4 -8 0 -15
-4 -15 -10z"/>
<path d="M1790 1190 c0 -5 5 -10 11 -10 5 0 7 5 4 10 -3 6 -8 10 -11 10 -2 0
-4 -4 -4 -10z"/>
<path d="M1850 1180 c-9 -6 -10 -10 -3 -10 6 0 15 5 18 10 8 12 4 12 -15 0z"/>
<path d="M1715 1169 c-4 -6 -5 -12 -2 -15 2 -3 7 2 10 11 7 17 1 20 -8 4z"/>
<path d="M1760 1169 c0 -5 5 -7 10 -4 6 3 10 8 10 11 0 2 -4 4 -10 4 -5 0 -10
-5 -10 -11z"/>
<path d="M1667 1073 c-4 -3 -7 -11 -7 -17 0 -6 5 -5 12 2 6 6 9 14 7 17 -3 3
-9 2 -12 -2z"/>
<path d="M1835 1030 c-3 -6 1 -7 9 -4 18 7 21 14 7 14 -6 0 -13 -4 -16 -10z"/>
<path d="M1626 2114 c-5 -14 -4 -15 9 -4 17 14 19 20 6 20 -5 0 -12 -7 -15
-16z"/>
<path d="M2279 2100 c-27 -22 -14 -27 15 -5 10 8 23 12 27 9 5 -3 9 0 9 5 0
17 -26 13 -51 -9z"/>
<path d="M2350 2095 c0 -8 2 -15 4 -15 2 0 6 7 10 15 3 8 1 15 -4 15 -6 0 -10
-7 -10 -15z"/>
<path d="M1755 2070 c-3 -5 -1 -10 4 -10 6 0 11 5 11 10 0 6 -2 10 -4 10 -3 0
-8 -4 -11 -10z"/>
<path d="M2085 2060 c-3 -6 1 -7 9 -4 18 7 21 14 7 14 -6 0 -13 -4 -16 -10z"/>
<path d="M2315 2060 c3 -5 8 -10 11 -10 2 0 4 5 4 10 0 6 -5 10 -11 10 -5 0
-7 -4 -4 -10z"/>
<path d="M1715 2050 c-3 -5 -1 -10 4 -10 6 0 11 5 11 10 0 6 -2 10 -4 10 -3 0
-8 -4 -11 -10z"/>
<path d="M1184 2029 c-19 -22 -19 -22 4 -10 12 6 22 16 22 21 0 15 -5 12 -26
-11z"/>
<path d="M2350 2039 c0 -5 5 -7 10 -4 6 3 10 8 10 11 0 2 -4 4 -10 4 -5 0 -10
-5 -10 -11z"/>
<path d="M1848 2033 c7 -3 16 -2 19 1 4 3 -2 6 -13 5 -11 0 -14 -3 -6 -6z"/>
<path d="M1020 2015 c0 -9 6 -12 15 -9 8 4 15 7 15 9 0 2 -7 5 -15 9 -9 3 -15
0 -15 -9z"/>
<path d="M1115 2021 c-3 -5 -2 -12 3 -15 5 -3 9 1 9 9 0 17 -3 19 -12 6z"/>
<path d="M960 2010 c-8 -5 -10 -10 -5 -10 6 0 17 5 25 10 8 5 11 10 5 10 -5 0
-17 -5 -25 -10z"/>
<path d="M1684 2006 c11 -9 27 -16 35 -15 14 0 14 1 1 6 -8 3 -24 10 -35 15
-20 9 -20 9 -1 -6z"/>
<path d="M741 1984 c0 -11 3 -14 6 -6 3 7 2 16 -1 19 -3 4 -6 -2 -5 -13z"/>
<path d="M975 1969 c-4 -6 -5 -12 -2 -15 2 -3 7 2 10 11 7 17 1 20 -8 4z"/>
<path d="M1760 1955 c-7 -9 -11 -17 -9 -20 3 -2 10 5 17 15 14 24 10 26 -8 5z"/>
<path d="M540 1956 c0 -2 7 -7 16 -10 8 -3 12 -2 9 4 -6 10 -25 14 -25 6z"/>
<path d="M805 1950 c-4 -7 3 -9 20 -6 37 7 44 16 12 16 -14 0 -29 -5 -32 -10z"/>
<path d="M941 1944 c0 -11 3 -14 6 -6 3 7 2 16 -1 19 -3 4 -6 -2 -5 -13z"/>
<path d="M1060 1950 c-13 -8 -13 -10 2 -10 9 0 20 5 23 10 8 13 -5 13 -25 0z"/>
<path d="M1710 1950 c-13 -8 -13 -10 2 -10 9 0 20 5 23 10 8 13 -5 13 -25 0z"/>
<path d="M1905 1949 c-3 -4 2 -6 10 -5 21 3 28 13 10 13 -9 0 -18 -4 -20 -8z"/>
<path d="M2350 1949 c0 -5 5 -7 10 -4 6 3 10 8 10 11 0 2 -4 4 -10 4 -5 0 -10
-5 -10 -11z"/>
<path d="M1110 1941 c0 -8 -10 -26 -22 -40 -19 -21 -20 -23 -3 -11 38 28 43
36 34 51 -7 12 -9 12 -9 0z"/>
<path d="M700 1919 c0 -5 5 -7 10 -4 6 3 10 8 10 11 0 2 -4 4 -10 4 -5 0 -10
-5 -10 -11z"/>
<path d="M656 1905 c-3 -8 -1 -15 4 -15 6 0 10 7 10 15 0 8 -2 15 -4 15 -2 0
-6 -7 -10 -15z"/>
<path d="M2050 1909 c0 -5 5 -7 10 -4 6 3 10 8 10 11 0 2 -4 4 -10 4 -5 0 -10
-5 -10 -11z"/>
<path d="M701 1886 c-9 -11 -9 -16 1 -22 7 -4 10 -4 6 1 -4 4 -3 14 3 22 6 7
9 13 6 13 -2 0 -10 -6 -16 -14z"/>
<path d="M1740 1890 c0 -5 5 -10 11 -10 5 0 7 5 4 10 -3 6 -8 10 -11 10 -2 0
-4 -4 -4 -10z"/>
<path d="M748 1883 c7 -3 16 -2 19 1 4 3 -2 6 -13 5 -11 0 -14 -3 -6 -6z"/>
<path d="M1030 1871 c0 -6 5 -13 10 -16 6 -3 10 1 10 9 0 9 -4 16 -10 16 -5 0
-10 -4 -10 -9z"/>
<path d="M1085 1860 c-3 -5 -1 -10 4 -10 6 0 11 5 11 10 0 6 -2 10 -4 10 -3 0
-8 -4 -11 -10z"/>
<path d="M1130 1850 c-10 -19 -10 -20 9 -8 22 13 28 28 11 28 -5 0 -14 -9 -20
-20z"/>
<path d="M918 1833 c7 -3 16 -2 19 1 4 3 -2 6 -13 5 -11 0 -14 -3 -6 -6z"/>
<path d="M1000 1830 c0 -5 7 -7 15 -4 8 4 15 8 15 10 0 2 -7 4 -15 4 -8 0 -15
-4 -15 -10z"/>
<path d="M1125 1810 c-3 -5 -2 -10 4 -10 5 0 13 5 16 10 3 6 2 10 -4 10 -5 0
-13 -4 -16 -10z"/>
<path d="M635 1780 c-19 -8 -19 -9 3 -9 12 -1 22 4 22 9 0 6 -1 10 -2 9 -2 0
-12 -4 -23 -9z"/>
<path d="M990 1780 c-8 -5 -12 -12 -9 -15 4 -3 12 1 19 10 14 17 11 19 -10 5z"/>
<path d="M1025 1780 c-3 -5 -1 -10 4 -10 6 0 11 5 11 10 0 6 -2 10 -4 10 -3 0
-8 -4 -11 -10z"/>
<path d="M848 1763 c7 -3 16 -2 19 1 4 3 -2 6 -13 5 -11 0 -14 -3 -6 -6z"/>
<path d="M900 1745 c-7 -9 -11 -17 -8 -20 2 -2 12 4 21 15 9 11 13 20 8 20 -5
0 -14 -7 -21 -15z"/>
<path d="M1130 1749 c0 -5 5 -7 10 -4 6 3 10 8 10 11 0 2 -4 4 -10 4 -5 0 -10
-5 -10 -11z"/>
<path d="M1080 1739 c0 -5 5 -7 10 -4 6 3 10 8 10 11 0 2 -4 4 -10 4 -5 0 -10
-5 -10 -11z"/>
<path d="M795 1730 c-3 -5 -1 -10 4 -10 6 0 11 5 11 10 0 6 -2 10 -4 10 -3 0
-8 -4 -11 -10z"/>
<path d="M685 1720 c-3 -5 -1 -10 4 -10 6 0 11 5 11 10 0 6 -2 10 -4 10 -3 0
-8 -4 -11 -10z"/>
<path d="M1035 1719 c-4 -6 0 -9 11 -7 11 2 18 -2 17 -9 -2 -7 2 -13 7 -13 14
0 13 13 -2 28 -15 15 -25 15 -33 1z"/>
<path d="M2808 1723 c7 -3 16 -2 19 1 4 3 -2 6 -13 5 -11 0 -14 -3 -6 -6z"/>
<path d="M871 1704 c0 -11 3 -14 6 -6 3 7 2 16 -1 19 -3 4 -6 -2 -5 -13z"/>
<path d="M488 1693 c7 -3 16 -2 19 1 4 3 -2 6 -13 5 -11 0 -14 -3 -6 -6z"/>
<path d="M715 1690 c-3 -5 -1 -10 4 -10 6 0 11 5 11 10 0 6 -2 10 -4 10 -3 0
-8 -4 -11 -10z"/>
<path d="M1010 1680 c0 -5 5 -10 11 -10 5 0 7 5 4 10 -3 6 -8 10 -11 10 -2 0
-4 -4 -4 -10z"/>
<path d="M755 1670 c-3 -5 -1 -10 4 -10 6 0 11 5 11 10 0 6 -2 10 -4 10 -3 0
-8 -4 -11 -10z"/>
<path d="M835 1669 c-11 -17 1 -21 15 -4 8 9 8 15 2 15 -6 0 -14 -5 -17 -11z"/>
<path d="M685 1660 c-3 -5 -1 -10 4 -10 6 0 11 5 11 10 0 6 -2 10 -4 10 -3 0
-8 -4 -11 -10z"/>
<path d="M450 1640 c-9 -6 -10 -10 -3 -10 6 0 15 5 18 10 8 12 4 12 -15 0z"/>
<path d="M619 1633 c-13 -16 -12 -17 4 -4 9 7 17 15 17 17 0 8 -8 3 -21 -13z"/>
<path d="M2410 1630 c-8 -5 -11 -12 -7 -16 4 -4 13 -2 19 4 15 15 7 24 -12 12z"/>
<path d="M990 1616 c0 -9 5 -16 10 -16 6 0 10 4 10 9 0 6 -4 13 -10 16 -5 3
-10 -1 -10 -9z"/>
<path d="M1051 1608 c-1 -10 -8 -18 -17 -18 -8 0 -12 -5 -8 -11 9 -15 38 15
31 33 -4 9 -6 7 -6 -4z"/>
<path d="M640 1599 c0 -5 5 -7 10 -4 6 3 10 8 10 11 0 2 -4 4 -10 4 -5 0 -10
-5 -10 -11z"/>
<path d="M686 1594 c-4 -10 -1 -14 6 -12 15 5 23 28 10 28 -5 0 -13 -7 -16
-16z"/>
<path d="M885 1600 c-3 -6 1 -7 9 -4 18 7 21 14 7 14 -6 0 -13 -4 -16 -10z"/>
<path d="M804 1589 c-3 -5 6 -8 20 -7 26 2 26 10 1 14 -8 1 -17 -2 -21 -7z"/>
<path d="M2445 1590 c-3 -5 -1 -10 4 -10 6 0 11 5 11 10 0 6 -2 10 -4 10 -3 0
-8 -4 -11 -10z"/>
<path d="M565 1580 c3 -5 8 -10 11 -10 2 0 4 5 4 10 0 6 -5 10 -11 10 -5 0 -7
-4 -4 -10z"/>
<path d="M195 1570 c3 -5 10 -10 16 -10 5 0 9 5 9 10 0 6 -7 10 -16 10 -8 0
-12 -4 -9 -10z"/>
<path d="M975 1570 c-3 -5 -1 -10 4 -10 6 0 11 5 11 10 0 6 -2 10 -4 10 -3 0
-8 -4 -11 -10z"/>
<path d="M337 1559 c7 -7 15 -10 18 -7 3 3 -2 9 -12 12 -14 6 -15 5 -6 -5z"/>
<path d="M797 1563 c-4 -3 -7 -11 -7 -17 0 -6 5 -5 12 2 6 6 9 14 7 17 -3 3
-9 2 -12 -2z"/>
<path d="M918 1563 c7 -3 16 -2 19 1 4 3 -2 6 -13 5 -11 0 -14 -3 -6 -6z"/>
<path d="M2100 1566 c0 -2 7 -6 15 -10 8 -3 15 -1 15 4 0 6 -7 10 -15 10 -8 0
-15 -2 -15 -4z"/>
<path d="M2408 1563 c7 -3 16 -2 19 1 4 3 -2 6 -13 5 -11 0 -14 -3 -6 -6z"/>
<path d="M758 1553 c7 -3 16 -2 19 1 4 3 -2 6 -13 5 -11 0 -14 -3 -6 -6z"/>
<path d="M845 1549 c-4 -6 -5 -12 -2 -15 2 -3 7 2 10 11 7 17 1 20 -8 4z"/>
<path d="M315 1530 c-3 -5 -2 -10 4 -10 5 0 13 5 16 10 3 6 2 10 -4 10 -5 0
-13 -4 -16 -10z"/>
<path d="M867 1521 c-10 -12 -9 -14 6 -8 10 4 25 7 33 7 8 0 14 4 14 9 0 15
-40 9 -53 -8z"/>
<path d="M2400 1529 c0 -5 5 -7 10 -4 6 3 10 8 10 11 0 2 -4 4 -10 4 -5 0 -10
-5 -10 -11z"/>
<path d="M760 1520 c0 -5 5 -10 10 -10 6 0 10 5 10 10 0 6 -4 10 -10 10 -5 0
-10 -4 -10 -10z"/>
<path d="M953 1515 c-3 -9 -3 -18 -1 -21 3 -3 8 4 11 16 6 23 -1 27 -10 5z"/>
<path d="M400 1510 c-13 -8 -12 -10 3 -10 9 0 17 5 17 10 0 12 -1 12 -20 0z"/>
<path d="M545 1499 c-11 -17 1 -21 15 -4 8 9 8 15 2 15 -6 0 -14 -5 -17 -11z"/>
<path d="M676 1502 c-2 -4 4 -8 15 -8 10 0 19 4 19 8 0 4 -6 8 -14 8 -8 0 -17
-4 -20 -8z"/>
<path d="M830 1490 c0 -5 5 -10 11 -10 5 0 7 5 4 10 -3 6 -8 10 -11 10 -2 0
-4 -4 -4 -10z"/>
<path d="M311 1474 c0 -11 3 -14 6 -6 3 7 2 16 -1 19 -3 4 -6 -2 -5 -13z"/>
<path d="M630 1480 c0 -5 5 -10 11 -10 5 0 7 5 4 10 -3 6 -8 10 -11 10 -2 0
-4 -4 -4 -10z"/>
<path d="M375 1470 c-4 -6 3 -10 14 -10 25 0 27 6 6 13 -8 4 -17 2 -20 -3z"/>
<path d="M487 1461 c-4 -17 -3 -21 5 -13 5 5 8 16 6 23 -3 8 -7 3 -11 -10z"/>
<path d="M740 1460 c-8 -5 -12 -12 -9 -15 4 -3 12 1 19 10 14 17 11 19 -10 5z"/>
<path d="M665 1449 c-4 -6 -5 -13 -2 -16 7 -7 27 6 27 18 0 12 -17 12 -25 -2z"/>
<path d="M786 1435 c-3 -8 -1 -15 4 -15 6 0 10 7 10 15 0 8 -2 15 -4 15 -2 0
-6 -7 -10 -15z"/>
<path d="M2003 1435 c0 -8 4 -15 9 -15 4 0 8 4 8 9 0 6 -4 12 -8 15 -5 3 -9
-1 -9 -9z"/>
<path d="M2706 1433 c-6 -14 -5 -15 5 -6 7 7 10 15 7 18 -3 3 -9 -2 -12 -12z"/>
<path d="M582 1390 c-15 -24 -15 -30 -1 -30 5 0 7 5 4 10 -3 6 -2 10 3 10 6 0
12 7 16 15 8 22 -7 18 -22 -5z"/>
<path d="M725 1400 c-3 -6 1 -7 9 -4 18 7 21 14 7 14 -6 0 -13 -4 -16 -10z"/>
<path d="M805 1400 c-3 -5 -1 -10 4 -10 6 0 11 5 11 10 0 6 -2 10 -4 10 -3 0
-8 -4 -11 -10z"/>
<path d="M163 1375 c0 -8 4 -12 9 -9 5 3 6 10 3 15 -9 13 -12 11 -12 -6z"/>
<path d="M743 1365 c0 -11 4 -12 14 -4 7 6 13 13 13 15 0 2 -6 4 -13 4 -8 0
-14 -7 -14 -15z"/>
<path d="M698 1363 c7 -3 16 -2 19 1 4 3 -2 6 -13 5 -11 0 -14 -3 -6 -6z"/>
<path d="M518 1353 c7 -3 16 -2 19 1 4 3 -2 6 -13 5 -11 0 -14 -3 -6 -6z"/>
<path d="M2625 1350 c-3 -5 -1 -10 4 -10 6 0 11 5 11 10 0 6 -2 10 -4 10 -3 0
-8 -4 -11 -10z"/>
<path d="M610 1340 c-8 -5 -10 -10 -5 -10 6 0 17 5 25 10 8 5 11 10 5 10 -5 0
-17 -5 -25 -10z"/>
<path d="M670 1340 c0 -5 5 -10 11 -10 5 0 7 5 4 10 -3 6 -8 10 -11 10 -2 0
-4 -4 -4 -10z"/>
<path d="M800 1332 c0 -12 3 -12 15 -2 8 7 15 13 15 15 0 1 -7 2 -15 2 -8 0
-15 -7 -15 -15z"/>
<path d="M2109 1333 c-13 -16 -12 -17 4 -4 9 7 17 15 17 17 0 8 -8 3 -21 -13z"/>
<path d="M230 1309 c0 -5 5 -7 10 -4 6 3 10 8 10 11 0 2 -4 4 -10 4 -5 0 -10
-5 -10 -11z"/>
<path d="M700 1309 c0 -5 5 -7 10 -4 6 3 10 8 10 11 0 2 -4 4 -10 4 -5 0 -10
-5 -10 -11z"/>
<path d="M783 1285 c-10 -11 -9 -13 6 -12 11 1 17 7 14 14 -6 16 -5 16 -20 -2z"/>
<path d="M655 1250 c-3 -5 -1 -10 4 -10 6 0 11 5 11 10 0 6 -2 10 -4 10 -3 0
-8 -4 -11 -10z"/>
<path d="M465 1240 c4 -6 11 -8 16 -5 14 9 11 15 -7 15 -8 0 -12 -5 -9 -10z"/>
<path d="M768 1083 c6 -2 18 -2 25 0 6 3 1 5 -13 5 -14 0 -19 -2 -12 -5z"/>
<path d="M2655 1060 c-3 -5 -1 -10 4 -10 6 0 11 5 11 10 0 6 -2 10 -4 10 -3 0
-8 -4 -11 -10z"/>
<path d="M1190 770 c0 -5 5 -10 11 -10 5 0 7 5 4 10 -3 6 -8 10 -11 10 -2 0
-4 -4 -4 -10z"/>
<path d="M1248 763 c7 -3 16 -2 19 1 4 3 -2 6 -13 5 -11 0 -14 -3 -6 -6z"/>
<path d="M1115 750 c3 -5 8 -10 11 -10 2 0 4 5 4 10 0 6 -5 10 -11 10 -5 0 -7
-4 -4 -10z"/>
<path d="M450 738 c0 -4 4 -8 9 -8 6 0 12 4 15 8 3 5 -1 9 -9 9 -8 0 -15 -4
-15 -9z"/>
<path d="M1026 733 c-6 -14 -5 -15 5 -6 7 7 10 15 7 18 -3 3 -9 -2 -12 -12z"/>
<path d="M1193 743 c-13 -2 -23 -8 -23 -13 0 -10 38 -1 46 11 3 5 4 8 2 8 -2
-1 -13 -4 -25 -6z"/>
<path d="M1265 730 c-4 -6 -11 -7 -17 -4 -7 4 -8 2 -4 -5 6 -9 11 -9 22 0 14
11 18 19 10 19 -3 0 -8 -5 -11 -10z"/>
<path d="M1160 660 c-13 -11 -19 -20 -13 -20 5 0 18 9 28 20 10 11 16 20 13
20 -3 0 -15 -9 -28 -20z"/>
<path d="M1085 609 c-4 -6 -5 -12 -2 -15 2 -3 7 2 10 11 7 17 1 20 -8 4z"/>
<path d="M1187 599 c7 -7 15 -10 18 -7 3 3 -2 9 -12 12 -14 6 -15 5 -6 -5z"/>
<path d="M838 593 c6 -2 18 -2 25 0 6 3 1 5 -13 5 -14 0 -19 -2 -12 -5z"/>
<path d="M1556 584 c-5 -14 -4 -15 9 -4 17 14 19 20 6 20 -5 0 -12 -7 -15 -16z"/>
<path d="M1155 570 c-3 -5 -1 -10 4 -10 6 0 11 5 11 10 0 6 -2 10 -4 10 -3 0
-8 -4 -11 -10z"/>
<path d="M1085 550 c-3 -6 1 -7 9 -4 18 7 21 14 7 14 -6 0 -13 -4 -16 -10z"/>
<path d="M1183 541 c-12 -19 -8 -31 11 -31 6 0 5 4 -3 9 -10 7 -8 12 10 25 15
10 18 16 9 16 -9 0 -21 -9 -27 -19z"/>
<path d="M2200 540 c0 -5 5 -10 11 -10 5 0 7 5 4 10 -3 6 -8 10 -11 10 -2 0
-4 -4 -4 -10z"/>
<path d="M1095 510 c-3 -5 -2 -10 4 -10 5 0 13 5 16 10 3 6 2 10 -4 10 -5 0
-13 -4 -16 -10z"/>
<path d="M1698 463 c7 -3 16 -2 19 1 4 3 -2 6 -13 5 -11 0 -14 -3 -6 -6z"/>
<path d="M935 330 c3 -5 8 -10 11 -10 2 0 4 5 4 10 0 6 -5 10 -11 10 -5 0 -7
-4 -4 -10z"/>
</g>
</svg>
